<mxfile host="app.diagrams.net" modified="2024-03-10T18:08:49.571Z" agent="Mozilla/5.0 (Windows NT 10.0; Win64; x64) AppleWebKit/537.36 (KHTML, like Gecko) Chrome/122.0.0.0 Safari/537.36" etag="x8Dri6GZDvdoLzNWyTuo" version="24.0.4" type="github" pages="2">
  <diagram id="78sCz90uFRcFQ9miNzxU" name="Page-2">
    <mxGraphModel dx="1804" dy="558" grid="1" gridSize="10" guides="1" tooltips="1" connect="1" arrows="1" fold="1" page="1" pageScale="1" pageWidth="850" pageHeight="1100" math="0" shadow="0">
      <root>
        <mxCell id="0" />
        <mxCell id="1" parent="0" />
        <mxCell id="tdOcX8E_IDGz-AW4-594-17" value="" style="group" vertex="1" connectable="0" parent="1">
          <mxGeometry x="-10" y="30" width="700" height="420" as="geometry" />
        </mxCell>
        <mxCell id="tdOcX8E_IDGz-AW4-594-1" value="" style="verticalLabelPosition=bottom;verticalAlign=top;html=1;shape=mxgraph.basic.partConcEllipse;startAngle=0.25;endAngle=0.75;arcWidth=0.25;fillColor=#10739E;strokeColor=none;align=center;fontFamily=Helvetica;fontSize=12;fontColor=#ffffff;" vertex="1" parent="tdOcX8E_IDGz-AW4-594-17">
          <mxGeometry y="126.00000000000003" width="155.55555555555557" height="168" as="geometry" />
        </mxCell>
        <mxCell id="tdOcX8E_IDGz-AW4-594-2" value="" style="verticalLabelPosition=bottom;verticalAlign=top;html=1;shape=mxgraph.basic.partConcEllipse;startAngle=0.75;endAngle=0.25;arcWidth=0.25;fillColor=#F2931E;strokeColor=none;align=center;fontFamily=Helvetica;fontSize=12;fontColor=#ffffff;" vertex="1" parent="tdOcX8E_IDGz-AW4-594-17">
          <mxGeometry x="136.11111111111114" y="126.00000000000003" width="155.55555555555557" height="168" as="geometry" />
        </mxCell>
        <mxCell id="tdOcX8E_IDGz-AW4-594-3" value="" style="verticalLabelPosition=bottom;verticalAlign=top;html=1;shape=mxgraph.basic.partConcEllipse;startAngle=0.25;endAngle=0.75;arcWidth=0.25;fillColor=#AE4132;strokeColor=none;align=center;fontFamily=Helvetica;fontSize=12;fontColor=#ffffff;" vertex="1" parent="tdOcX8E_IDGz-AW4-594-17">
          <mxGeometry x="272.2222222222223" y="126.00000000000003" width="155.55555555555557" height="168" as="geometry" />
        </mxCell>
        <mxCell id="tdOcX8E_IDGz-AW4-594-4" value="" style="verticalLabelPosition=bottom;verticalAlign=top;html=1;shape=mxgraph.basic.partConcEllipse;startAngle=0.75;endAngle=0.25;arcWidth=0.25;fillColor=#23445D;strokeColor=none;align=center;fontFamily=Helvetica;fontSize=12;fontColor=#ffffff;" vertex="1" parent="tdOcX8E_IDGz-AW4-594-17">
          <mxGeometry x="408.33333333333337" y="126.00000000000003" width="155.55555555555557" height="168" as="geometry" />
        </mxCell>
        <mxCell id="tdOcX8E_IDGz-AW4-594-5" value="" style="verticalLabelPosition=bottom;verticalAlign=top;html=1;shape=mxgraph.basic.partConcEllipse;startAngle=0.25;endAngle=0.75;arcWidth=0.25;fillColor=#15AA96;strokeColor=none;align=center;fontFamily=Helvetica;fontSize=12;fontColor=#ffffff;" vertex="1" parent="tdOcX8E_IDGz-AW4-594-17">
          <mxGeometry x="544.4444444444446" y="126.00000000000003" width="155.55555555555557" height="168" as="geometry" />
        </mxCell>
        <mxCell id="tdOcX8E_IDGz-AW4-594-6" value="1" style="shape=ellipse;strokeWidth=6;strokeColor=#10739E;fontSize=15;html=1;whiteSpace=wrap;fontStyle=1;fontColor=#10739E;align=center;verticalAlign=top;fontFamily=Helvetica;fillColor=#6a00ff;" vertex="1" parent="tdOcX8E_IDGz-AW4-594-17">
          <mxGeometry x="45.370370370370374" y="175" width="64.81481481481482" height="70" as="geometry" />
        </mxCell>
        <mxCell id="tdOcX8E_IDGz-AW4-594-7" value="2" style="shape=ellipse;strokeWidth=6;strokeColor=#F2931E;fontSize=15;html=1;whiteSpace=wrap;fontStyle=1;fontColor=#F2931E;align=center;verticalAlign=top;fontFamily=Helvetica;fillColor=#6a00ff;" vertex="1" parent="tdOcX8E_IDGz-AW4-594-17">
          <mxGeometry x="181.4814814814815" y="175" width="64.81481481481482" height="70" as="geometry" />
        </mxCell>
        <mxCell id="tdOcX8E_IDGz-AW4-594-8" value="3" style="shape=ellipse;strokeWidth=6;strokeColor=#AE4132;fontSize=15;html=1;whiteSpace=wrap;fontStyle=1;fontColor=#AE4132;align=center;verticalAlign=top;fontFamily=Helvetica;fillColor=#6a00ff;" vertex="1" parent="tdOcX8E_IDGz-AW4-594-17">
          <mxGeometry x="317.59259259259267" y="175" width="64.81481481481482" height="70" as="geometry" />
        </mxCell>
        <mxCell id="tdOcX8E_IDGz-AW4-594-9" value="4" style="shape=ellipse;strokeWidth=6;strokeColor=#23445D;fontSize=15;html=1;whiteSpace=wrap;fontStyle=1;fontColor=#23445D;align=center;verticalAlign=top;fontFamily=Helvetica;fillColor=#6a00ff;" vertex="1" parent="tdOcX8E_IDGz-AW4-594-17">
          <mxGeometry x="453.70370370370375" y="175" width="64.81481481481482" height="70" as="geometry" />
        </mxCell>
        <mxCell id="tdOcX8E_IDGz-AW4-594-10" value="5" style="shape=ellipse;strokeWidth=6;strokeColor=#12AAB5;fontSize=15;html=1;whiteSpace=wrap;fontStyle=1;fontColor=#12AAB5;align=center;verticalAlign=top;fontFamily=Helvetica;fillColor=#6a00ff;" vertex="1" parent="tdOcX8E_IDGz-AW4-594-17">
          <mxGeometry x="589.8148148148149" y="175" width="64.81481481481482" height="70" as="geometry" />
        </mxCell>
        <mxCell id="tdOcX8E_IDGz-AW4-594-11" value="&lt;font color=&quot;#F2931E&quot;&gt;&lt;b&gt;Mutual Exclusive Dimensions/Filters&lt;/b&gt;&lt;/font&gt;&lt;br&gt;&lt;br&gt;&lt;font size=&quot;1&quot;&gt;Filters will be Mutual exclusive , it controls basedo nthe user inputs&lt;/font&gt;" style="rounded=1;strokeColor=none;fillColor=#EEEEEE;align=center;arcSize=12;verticalAlign=top;whiteSpace=wrap;html=1;fontSize=12;fontFamily=Helvetica;fontColor=#ffffff;" vertex="1" parent="tdOcX8E_IDGz-AW4-594-17">
          <mxGeometry y="308" width="155.55555555555557" height="112" as="geometry" />
        </mxCell>
        <mxCell id="tdOcX8E_IDGz-AW4-594-12" value="&lt;font style=&quot;text-align: left;&quot; color=&quot;#10739E&quot;&gt;&lt;b&gt;Intelligent Data blending&lt;/b&gt;&lt;/font&gt;&lt;br style=&quot;text-align: left;&quot;&gt;&lt;br style=&quot;text-align: left;&quot;&gt;&lt;font style=&quot;text-align: left;&quot; size=&quot;1&quot;&gt;1. Based on the user inputs , identifies the required multiple tables from different categories&lt;/font&gt;" style="rounded=1;strokeColor=none;fillColor=#EEEEEE;align=center;arcSize=12;verticalAlign=top;whiteSpace=wrap;html=1;fontSize=12;fontFamily=Helvetica;fontColor=#ffffff;" vertex="1" parent="tdOcX8E_IDGz-AW4-594-17">
          <mxGeometry x="136.11111111111114" width="155.55555555555557" height="112" as="geometry" />
        </mxCell>
        <mxCell id="tdOcX8E_IDGz-AW4-594-13" value="&lt;span style=&quot;box-sizing: border-box; margin: 0px; padding: 0px; border: 0px; font-variant-numeric: inherit; font-variant-east-asian: inherit; font-variant-alternates: inherit; font-variant-position: inherit; font-stretch: inherit; font-size: 16px; line-height: inherit; font-family: Poppins; font-optical-sizing: inherit; font-kerning: inherit; font-feature-settings: inherit; font-variation-settings: inherit; vertical-align: baseline; color: rgb(0, 0, 0); letter-spacing: 0.1px; text-align: left; background-color: rgb(255, 255, 255);&quot;&gt;Row-level security&lt;/span&gt;&lt;span style=&quot;color: rgb(0, 0, 0); font-family: Poppins; font-size: 16px; letter-spacing: 0.1px; text-align: left; background-color: rgb(255, 255, 255);&quot;&gt;&amp;nbsp;&lt;/span&gt;" style="rounded=1;strokeColor=none;fillColor=#EEEEEE;align=center;arcSize=12;verticalAlign=top;whiteSpace=wrap;html=1;fontSize=12;fontFamily=Helvetica;fontColor=#ffffff;" vertex="1" parent="tdOcX8E_IDGz-AW4-594-17">
          <mxGeometry x="272.2222222222223" y="308" width="155.55555555555557" height="112" as="geometry" />
        </mxCell>
        <mxCell id="tdOcX8E_IDGz-AW4-594-15" value="&lt;div&gt;&lt;span style=&quot;font-family: -apple-system, BlinkMacSystemFont, &amp;quot;PingFang SC&amp;quot;, &amp;quot;Segoe UI&amp;quot;, &amp;quot;Microsoft YaHei&amp;quot;, &amp;quot;Helvetica Neue&amp;quot;, Arial, &amp;quot;Noto Sans&amp;quot;, sans-serif, &amp;quot;Apple Color Emoji&amp;quot;, &amp;quot;Segoe UI Emoji&amp;quot;, &amp;quot;Segoe UI Symbol&amp;quot;, &amp;quot;Noto Color emoji&amp;quot;; text-align: start;&quot;&gt;&lt;font color=&quot;#3333ff&quot; style=&quot;font-size: 12px;&quot;&gt;Unified Metric Layer&amp;nbsp;&lt;/font&gt;&lt;/span&gt;&lt;/div&gt;&lt;span style=&quot;font-family: -apple-system, BlinkMacSystemFont, &amp;quot;PingFang SC&amp;quot;, &amp;quot;Segoe UI&amp;quot;, &amp;quot;Microsoft YaHei&amp;quot;, &amp;quot;Helvetica Neue&amp;quot;, Arial, &amp;quot;Noto Sans&amp;quot;, sans-serif, &amp;quot;Apple Color Emoji&amp;quot;, &amp;quot;Segoe UI Emoji&amp;quot;, &amp;quot;Segoe UI Symbol&amp;quot;, &amp;quot;Noto Color emoji&amp;quot;; text-align: start;&quot;&gt;&lt;font color=&quot;#3333ff&quot; style=&quot;font-size: 12px;&quot;&gt;A semantic layer is a business abstraction derived from the technical implementation layer to uniformly maintain business logic&lt;/font&gt;&lt;/span&gt;" style="rounded=1;strokeColor=none;fillColor=#EEEEEE;align=center;arcSize=12;verticalAlign=top;whiteSpace=wrap;html=1;fontSize=12;fontFamily=Helvetica;fontColor=#ffffff;" vertex="1" parent="tdOcX8E_IDGz-AW4-594-17">
          <mxGeometry x="544.4444444444446" y="308" width="155.55555555555557" height="112" as="geometry" />
        </mxCell>
        <mxCell id="-UdENOriCXIabGFjitiQ-1" value="&lt;ul style=&quot;box-sizing: inherit; margin: 0px; padding: 0px; border: 0px; vertical-align: baseline; font-family: -apple-system, BlinkMacSystemFont, &amp;quot;PingFang SC&amp;quot;, &amp;quot;Segoe UI&amp;quot;, &amp;quot;Microsoft YaHei&amp;quot;, &amp;quot;Helvetica Neue&amp;quot;, Arial, &amp;quot;Noto Sans&amp;quot;, sans-serif, &amp;quot;Apple Color Emoji&amp;quot;, &amp;quot;Segoe UI Emoji&amp;quot;, &amp;quot;Segoe UI Symbol&amp;quot;, &amp;quot;Noto Color emoji&amp;quot;; list-style: none; word-break: break-word; color: rgb(7, 19, 48); text-align: start;&quot;&gt;&lt;li style=&quot;box-sizing: inherit; margin: 12px 0px 0px; padding: 0px 0px 0px 45px; border: 0px; font-weight: inherit; vertical-align: baseline; position: relative; word-break: break-word;&quot;&gt;&lt;span style=&quot;box-sizing: inherit; margin: 0px; padding: 0px; border: 0px; font-weight: 700; vertical-align: baseline; word-break: break-word;&quot;&gt;&lt;font style=&quot;font-size: 12px;&quot;&gt;Low-code Metrics Catalog&lt;/font&gt;&lt;/span&gt;&lt;/li&gt;&lt;/ul&gt;" style="rounded=1;strokeColor=none;fillColor=#EEEEEE;align=center;arcSize=12;verticalAlign=top;whiteSpace=wrap;html=1;fontSize=12;fontFamily=Helvetica;fontColor=#ffffff;" vertex="1" parent="tdOcX8E_IDGz-AW4-594-17">
          <mxGeometry x="408.3333333333333" width="155.55555555555557" height="112" as="geometry" />
        </mxCell>
        <mxCell id="tdOcX8E_IDGz-AW4-594-14" value="&lt;span style=&quot;box-sizing: border-box; margin: 0px; padding: 0px; border: 0px; font-variant-numeric: inherit; font-variant-east-asian: inherit; font-variant-alternates: inherit; font-variant-position: inherit; font-stretch: inherit; font-size: 16px; line-height: inherit; font-family: Poppins; font-optical-sizing: inherit; font-kerning: inherit; font-feature-settings: inherit; font-variation-settings: inherit; vertical-align: baseline; color: rgb(0, 0, 0); letter-spacing: 0.1px; text-align: left; background-color: rgb(255, 255, 255);&quot;&gt;Column level security&lt;/span&gt;" style="rounded=1;strokeColor=none;fillColor=#EEEEEE;align=center;arcSize=12;verticalAlign=top;whiteSpace=wrap;html=1;fontSize=12;fontFamily=Helvetica;fontColor=#ffffff;" vertex="1" parent="1">
          <mxGeometry x="720.0033333333333" y="100" width="155.55555555555557" height="112" as="geometry" />
        </mxCell>
      </root>
    </mxGraphModel>
  </diagram>
  <diagram name="Page-1" id="IX14Sh2FknliUfe82c5O">
    <mxGraphModel dx="954" dy="558" grid="1" gridSize="10" guides="1" tooltips="1" connect="1" arrows="1" fold="1" page="1" pageScale="1" pageWidth="850" pageHeight="1100" math="0" shadow="0">
      <root>
        <mxCell id="0" />
        <mxCell id="1" parent="0" />
        <mxCell id="C9gFXLcH3svG776JhAeq-95" value="second" parent="0" />
        <mxCell id="lj7vaZxrz3V_azT0Fqbq-1" value="" style="shape=image;verticalLabelPosition=bottom;labelBackgroundColor=default;verticalAlign=top;aspect=fixed;imageAspect=0;image=https://siteprod-s3-cdn.kyligence.io/2022/02/Unified-Semantic-Layer-Diagram-1024x384.png;" vertex="1" parent="C9gFXLcH3svG776JhAeq-95">
          <mxGeometry x="20" y="540" width="1024" height="384" as="geometry" />
        </mxCell>
        <mxCell id="C9gFXLcH3svG776JhAeq-89" value="first" parent="0" />
      </root>
    </mxGraphModel>
  </diagram>
</mxfile>
